<svg width="19" height="17" viewBox="0 0 19 17" fill="none" xmlns="http://www.w3.org/2000/svg">
<path d="M18.2741 12.1435H6.06172L6.6749 10.8945L16.8632 10.8761C17.2077 10.8761 17.503 10.63 17.5645 10.2896L18.9755 2.39199C19.0124 2.18486 18.957 1.97158 18.8217 1.80957C18.7548 1.72984 18.6713 1.66561 18.5771 1.62134C18.4829 1.57708 18.3802 1.55383 18.2762 1.55322L5.31523 1.51016L5.20449 0.989258C5.13477 0.657031 4.83535 0.415039 4.49492 0.415039H1.32646C1.13447 0.415039 0.950334 0.49131 0.814572 0.627072C0.67881 0.762834 0.602539 0.946968 0.602539 1.13896C0.602539 1.33096 0.67881 1.5151 0.814572 1.65086C0.950334 1.78662 1.13447 1.86289 1.32646 1.86289H3.9084L4.39238 4.16387L5.58389 9.93272L4.0499 12.4367C3.97024 12.5442 3.92226 12.6719 3.91139 12.8053C3.90051 12.9387 3.92718 13.0724 3.98838 13.1914C4.11143 13.4355 4.35957 13.5893 4.63437 13.5893H5.92227C5.6477 13.9539 5.4994 14.3981 5.4998 14.8546C5.4998 16.0153 6.44316 16.9587 7.60391 16.9587C8.76465 16.9587 9.70801 16.0153 9.70801 14.8546C9.70801 14.3973 9.55625 13.9522 9.28555 13.5893H12.5894C12.3148 13.9539 12.1665 14.3981 12.1669 14.8546C12.1669 16.0153 13.1103 16.9587 14.271 16.9587C15.4317 16.9587 16.3751 16.0153 16.3751 14.8546C16.3751 14.3973 16.2233 13.9522 15.9526 13.5893H18.2762C18.674 13.5893 19.0001 13.2652 19.0001 12.8653C18.9989 12.6735 18.9219 12.49 18.7859 12.3548C18.6499 12.2195 18.4659 12.1436 18.2741 12.1435V12.1435ZM5.6167 2.9375L17.4251 2.97646L16.2685 9.45283L6.99277 9.46924L5.6167 2.9375ZM7.60391 15.5026C7.24707 15.5026 6.95586 15.2114 6.95586 14.8546C6.95586 14.4978 7.24707 14.2065 7.60391 14.2065C7.96074 14.2065 8.25195 14.4978 8.25195 14.8546C8.25195 15.0265 8.18368 15.1913 8.06214 15.3128C7.94061 15.4344 7.77578 15.5026 7.60391 15.5026V15.5026ZM14.271 15.5026C13.9142 15.5026 13.6229 15.2114 13.6229 14.8546C13.6229 14.4978 13.9142 14.2065 14.271 14.2065C14.6278 14.2065 14.919 14.4978 14.919 14.8546C14.919 15.0265 14.8508 15.1913 14.7292 15.3128C14.6077 15.4344 14.4429 15.5026 14.271 15.5026V15.5026Z" fill="white"/>
</svg>
