<svg width="19" height="17" viewBox="0 0 19 17" fill="none" xmlns="http://www.w3.org/2000/svg">
<path d="M18.2741 11.9492H6.06172L6.6749 10.7003L16.8632 10.6819C17.2077 10.6819 17.503 10.4358 17.5645 10.0953L18.9755 2.19778C19.0124 1.99065 18.957 1.77737 18.8217 1.61536C18.7548 1.53562 18.6713 1.4714 18.5771 1.42713C18.4829 1.38286 18.3802 1.35962 18.2762 1.35901L5.31523 1.31594L5.20449 0.795044C5.13477 0.462817 4.83535 0.220825 4.49492 0.220825H1.32646C1.13447 0.220825 0.950334 0.297096 0.814572 0.432858C0.67881 0.568621 0.602539 0.752754 0.602539 0.944751C0.602539 1.13675 0.67881 1.32088 0.814572 1.45664C0.950334 1.59241 1.13447 1.66868 1.32646 1.66868H3.9084L4.39238 3.96965L5.58389 9.7385L4.0499 12.2425C3.97024 12.35 3.92226 12.4777 3.91139 12.6111C3.90051 12.7444 3.92718 12.8782 3.98838 12.9972C4.11143 13.2412 4.35957 13.395 4.63437 13.395H5.92227C5.6477 13.7597 5.4994 14.2039 5.4998 14.6604C5.4998 15.8211 6.44316 16.7645 7.60391 16.7645C8.76465 16.7645 9.70801 15.8211 9.70801 14.6604C9.70801 14.2031 9.55625 13.758 9.28555 13.395H12.5894C12.3148 13.7597 12.1665 14.2039 12.1669 14.6604C12.1669 15.8211 13.1103 16.7645 14.271 16.7645C15.4317 16.7645 16.3751 15.8211 16.3751 14.6604C16.3751 14.2031 16.2233 13.758 15.9526 13.395H18.2762C18.674 13.395 19.0001 13.071 19.0001 12.6711C18.9989 12.4793 18.9219 12.2958 18.7859 12.1605C18.6499 12.0253 18.4659 11.9493 18.2741 11.9492V11.9492ZM5.6167 2.74329L17.4251 2.78225L16.2685 9.25862L6.99277 9.27503L5.6167 2.74329ZM7.60391 15.3084C7.24707 15.3084 6.95586 15.0172 6.95586 14.6604C6.95586 14.3035 7.24707 14.0123 7.60391 14.0123C7.96074 14.0123 8.25195 14.3035 8.25195 14.6604C8.25195 14.8322 8.18368 14.9971 8.06214 15.1186C7.94061 15.2401 7.77578 15.3084 7.60391 15.3084V15.3084ZM14.271 15.3084C13.9142 15.3084 13.6229 15.0172 13.6229 14.6604C13.6229 14.3035 13.9142 14.0123 14.271 14.0123C14.6278 14.0123 14.919 14.3035 14.919 14.6604C14.919 14.8322 14.8508 14.9971 14.7292 15.1186C14.6077 15.2401 14.4429 15.3084 14.271 15.3084V15.3084Z" fill="white"/>
</svg>
