<svg width="19" height="18" viewBox="0 0 19 18" fill="none" xmlns="http://www.w3.org/2000/svg">
<path d="M18.274 12.2397H6.06163L6.67481 10.9907L16.8631 10.9723C17.2076 10.9723 17.5029 10.7262 17.5645 10.3857L18.9754 2.48818C19.0123 2.28105 18.9569 2.06777 18.8216 1.90576C18.7547 1.82603 18.6713 1.7618 18.5771 1.71753C18.4829 1.67327 18.3802 1.65003 18.2761 1.64941L5.31514 1.60635L5.2044 1.08545C5.13467 0.753223 4.83526 0.51123 4.49483 0.51123H1.32637C1.13438 0.51123 0.950243 0.587501 0.81448 0.723263C0.678718 0.859026 0.602448 1.04316 0.602448 1.23516C0.602448 1.42715 0.678718 1.61129 0.81448 1.74705C0.950243 1.88281 1.13438 1.95908 1.32637 1.95908H3.90831L4.39229 4.26006L5.58379 10.0289L4.04981 12.5329C3.97015 12.6404 3.92217 12.7681 3.91129 12.9015C3.90042 13.0348 3.92709 13.1686 3.98829 13.2876C4.11133 13.5316 4.35948 13.6855 4.63428 13.6855H5.92217C5.64761 14.0501 5.49931 14.4943 5.49971 14.9508C5.49971 16.1115 6.44307 17.0549 7.60381 17.0549C8.76456 17.0549 9.70792 16.1115 9.70792 14.9508C9.70792 14.4935 9.55616 14.0484 9.28545 13.6855H12.5893C12.3147 14.0501 12.1664 14.4943 12.1668 14.9508C12.1668 16.1115 13.1102 17.0549 14.2709 17.0549C15.4316 17.0549 16.375 16.1115 16.375 14.9508C16.375 14.4935 16.2232 14.0484 15.9525 13.6855H18.2761C18.6739 13.6855 19 13.3614 19 12.9615C18.9988 12.7697 18.9218 12.5862 18.7858 12.451C18.6498 12.3157 18.4658 12.2398 18.274 12.2397V12.2397ZM5.61661 3.03369L17.425 3.07266L16.2684 9.54902L6.99268 9.56543L5.61661 3.03369ZM7.60381 15.5988C7.24698 15.5988 6.95577 15.3076 6.95577 14.9508C6.95577 14.5939 7.24698 14.3027 7.60381 14.3027C7.96065 14.3027 8.25186 14.5939 8.25186 14.9508C8.25186 15.1227 8.18358 15.2875 8.06205 15.409C7.94052 15.5306 7.77569 15.5988 7.60381 15.5988V15.5988ZM14.2709 15.5988C13.9141 15.5988 13.6229 15.3076 13.6229 14.9508C13.6229 14.5939 13.9141 14.3027 14.2709 14.3027C14.6277 14.3027 14.9189 14.5939 14.9189 14.9508C14.9189 15.1227 14.8507 15.2875 14.7291 15.409C14.6076 15.5306 14.4428 15.5988 14.2709 15.5988V15.5988Z" fill="white"/>
</svg>
