<svg width="19" height="18" viewBox="0 0 19 18" fill="none" xmlns="http://www.w3.org/2000/svg">
<path d="M18.2741 12.3363H6.06172L6.6749 11.0874L16.8632 11.0689C17.2077 11.0689 17.503 10.8229 17.5645 10.4824L18.9755 2.58486C19.0124 2.37773 18.957 2.16445 18.8217 2.00244C18.7548 1.92271 18.6713 1.85848 18.5771 1.81421C18.4829 1.76995 18.3802 1.7467 18.2762 1.74609L5.31523 1.70303L5.20449 1.18213C5.13477 0.849902 4.83535 0.60791 4.49492 0.60791H1.32646C1.13447 0.60791 0.950334 0.684181 0.814572 0.819943C0.67881 0.955705 0.602539 1.13984 0.602539 1.33184C0.602539 1.52383 0.67881 1.70797 0.814572 1.84373C0.950334 1.97949 1.13447 2.05576 1.32646 2.05576H3.9084L4.39238 4.35674L5.58389 10.1256L4.0499 12.6296C3.97024 12.7371 3.92226 12.8648 3.91139 12.9981C3.90051 13.1315 3.92718 13.2653 3.98838 13.3843C4.11143 13.6283 4.35957 13.7821 4.63437 13.7821H5.92227C5.6477 14.1468 5.4994 14.591 5.4998 15.0475C5.4998 16.2082 6.44316 17.1516 7.60391 17.1516C8.76465 17.1516 9.70801 16.2082 9.70801 15.0475C9.70801 14.5901 9.55625 14.1451 9.28555 13.7821H12.5894C12.3148 14.1468 12.1665 14.591 12.1669 15.0475C12.1669 16.2082 13.1103 17.1516 14.271 17.1516C15.4317 17.1516 16.3751 16.2082 16.3751 15.0475C16.3751 14.5901 16.2233 14.1451 15.9526 13.7821H18.2762C18.674 13.7821 19.0001 13.4581 19.0001 13.0582C18.9989 12.8664 18.9219 12.6829 18.7859 12.5476C18.6499 12.4124 18.4659 12.3364 18.2741 12.3363V12.3363ZM5.6167 3.13037L17.4251 3.16934L16.2685 9.6457L6.99277 9.66211L5.6167 3.13037ZM7.60391 15.6955C7.24707 15.6955 6.95586 15.4043 6.95586 15.0475C6.95586 14.6906 7.24707 14.3994 7.60391 14.3994C7.96074 14.3994 8.25195 14.6906 8.25195 15.0475C8.25195 15.2193 8.18368 15.3842 8.06214 15.5057C7.94061 15.6272 7.77578 15.6955 7.60391 15.6955V15.6955ZM14.271 15.6955C13.9142 15.6955 13.6229 15.4043 13.6229 15.0475C13.6229 14.6906 13.9142 14.3994 14.271 14.3994C14.6278 14.3994 14.919 14.6906 14.919 15.0475C14.919 15.2193 14.8508 15.3842 14.7292 15.5057C14.6077 15.6272 14.4429 15.6955 14.271 15.6955V15.6955Z" fill="white"/>
</svg>
