<svg width="21" height="21" viewBox="0 0 21 21" fill="none" xmlns="http://www.w3.org/2000/svg">
<path d="M10.5 9.34644C8.23001 9.34644 7.77001 5.90644 7.77001 5.90644C7.50001 4.11644 8.32001 2.09644 10.47 2.09644C12.63 2.09644 13.45 4.11644 13.18 5.90644C13.18 5.90644 12.77 9.34644 10.5 9.34644ZM10.5 11.9164L13.22 10.0964C15.61 10.0964 17.74 12.4264 17.74 14.6264V17.1164C17.74 17.1164 14.09 18.2464 10.5 18.2464C6.85001 18.2464 3.26001 17.1164 3.26001 17.1164V14.6264C3.26001 12.3764 5.20001 10.1464 7.73001 10.1464L10.5 11.9164Z" fill="#9F9F9F"/>
</svg>
