<svg width="17" height="17" viewBox="0 0 17 17" fill="none" xmlns="http://www.w3.org/2000/svg">
<path d="M8.50001 8.27974C6.68401 8.27974 6.31601 5.52774 6.31601 5.52774C6.10001 4.09574 6.75601 2.47974 8.47601 2.47974C10.204 2.47974 10.86 4.09574 10.644 5.52774C10.644 5.52774 10.316 8.27974 8.50001 8.27974ZM8.50001 10.3357L10.676 8.87974C12.588 8.87974 14.292 10.7437 14.292 12.5037V14.4957C14.292 14.4957 11.372 15.3997 8.50001 15.3997C5.58001 15.3997 2.70801 14.4957 2.70801 14.4957V12.5037C2.70801 10.7037 4.26001 8.91974 6.28401 8.91974L8.50001 10.3357Z" fill="#9F9F9F"/>
</svg>
