<svg width="26" height="25" viewBox="0 0 26 25" fill="none" xmlns="http://www.w3.org/2000/svg">
<path d="M22.5238 7.14286H9.42858M7.04763 7.14286H3.4762M22.5238 19.0476H9.42858M7.04763 19.0476H3.4762M16.5714 13.0952H3.4762M22.5238 13.0952H18.9524M8.2381 4.76191C8.55384 4.76191 8.85664 4.88733 9.0799 5.11059C9.30315 5.33385 9.42858 5.63665 9.42858 5.95238V8.33333C9.42858 8.64907 9.30315 8.95187 9.0799 9.17513C8.85664 9.39839 8.55384 9.52381 8.2381 9.52381C7.92237 9.52381 7.61957 9.39839 7.39631 9.17513C7.17305 8.95187 7.04763 8.64907 7.04763 8.33333V5.95238C7.04763 5.63665 7.17305 5.33385 7.39631 5.11059C7.61957 4.88733 7.92237 4.76191 8.2381 4.76191V4.76191ZM8.2381 16.6667C8.55384 16.6667 8.85664 16.7921 9.0799 17.0154C9.30315 17.2386 9.42858 17.5414 9.42858 17.8571V20.2381C9.42858 20.5538 9.30315 20.8566 9.0799 21.0799C8.85664 21.3031 8.55384 21.4286 8.2381 21.4286C7.92237 21.4286 7.61957 21.3031 7.39631 21.0799C7.17305 20.8566 7.04763 20.5538 7.04763 20.2381V17.8571C7.04763 17.5414 7.17305 17.2386 7.39631 17.0154C7.61957 16.7921 7.92237 16.6667 8.2381 16.6667ZM17.7619 10.7143C18.0776 10.7143 18.3804 10.8397 18.6037 11.063C18.827 11.2862 18.9524 11.589 18.9524 11.9048V14.2857C18.9524 14.6014 18.827 14.9043 18.6037 15.1275C18.3804 15.3508 18.0776 15.4762 17.7619 15.4762C17.4462 15.4762 17.1434 15.3508 16.9201 15.1275C16.6969 14.9043 16.5714 14.6014 16.5714 14.2857V11.9048C16.5714 11.589 16.6969 11.2862 16.9201 11.063C17.1434 10.8397 17.4462 10.7143 17.7619 10.7143V10.7143Z" stroke="black" stroke-linecap="round" stroke-linejoin="round"/>
</svg>
