<svg width="23" height="23" viewBox="0 0 23 23" fill="none" xmlns="http://www.w3.org/2000/svg">
<path d="M17.9167 4.26326H16.0834V3.3466C16.0834 3.10348 15.9868 2.87033 15.8149 2.69842C15.643 2.52651 15.4098 2.42993 15.1667 2.42993C14.9236 2.42993 14.6904 2.52651 14.5185 2.69842C14.3466 2.87033 14.25 3.10348 14.25 3.3466V4.26326H8.75004V3.3466C8.75004 3.10348 8.65346 2.87033 8.48155 2.69842C8.30965 2.52651 8.07649 2.42993 7.83337 2.42993C7.59026 2.42993 7.3571 2.52651 7.18519 2.69842C7.01328 2.87033 6.91671 3.10348 6.91671 3.3466V4.26326H5.08337C4.35403 4.26326 3.65456 4.553 3.13883 5.06872C2.62311 5.58445 2.33337 6.28392 2.33337 7.01326V18.0133C2.33337 18.7426 2.62311 19.4421 3.13883 19.9578C3.65456 20.4735 4.35403 20.7633 5.08337 20.7633H17.9167C18.6461 20.7633 19.3455 20.4735 19.8613 19.9578C20.377 19.4421 20.6667 18.7426 20.6667 18.0133V7.01326C20.6667 6.28392 20.377 5.58445 19.8613 5.06872C19.3455 4.553 18.6461 4.26326 17.9167 4.26326V4.26326ZM18.8334 18.0133C18.8334 18.2564 18.7368 18.4895 18.5649 18.6614C18.393 18.8334 18.1598 18.9299 17.9167 18.9299H5.08337C4.84026 18.9299 4.6071 18.8334 4.43519 18.6614C4.26328 18.4895 4.16671 18.2564 4.16671 18.0133V11.5966H18.8334V18.0133ZM18.8334 9.76326H4.16671V7.01326C4.16671 6.77015 4.26328 6.53699 4.43519 6.36508C4.6071 6.19318 4.84026 6.0966 5.08337 6.0966H6.91671V7.01326C6.91671 7.25638 7.01328 7.48954 7.18519 7.66145C7.3571 7.83335 7.59026 7.92993 7.83337 7.92993C8.07649 7.92993 8.30965 7.83335 8.48155 7.66145C8.65346 7.48954 8.75004 7.25638 8.75004 7.01326V6.0966H14.25V7.01326C14.25 7.25638 14.3466 7.48954 14.5185 7.66145C14.6904 7.83335 14.9236 7.92993 15.1667 7.92993C15.4098 7.92993 15.643 7.83335 15.8149 7.66145C15.9868 7.48954 16.0834 7.25638 16.0834 7.01326V6.0966H17.9167C18.1598 6.0966 18.393 6.19318 18.5649 6.36508C18.7368 6.53699 18.8334 6.77015 18.8334 7.01326V9.76326Z" fill="black"/>
</svg>
