<svg width="23" height="23" viewBox="0 0 23 23" fill="none" xmlns="http://www.w3.org/2000/svg">
<path d="M17.9167 4.26326H16.0833V3.3466C16.0833 3.10348 15.9868 2.87033 15.8149 2.69842C15.6429 2.52651 15.4098 2.42993 15.1667 2.42993C14.9236 2.42993 14.6904 2.52651 14.5185 2.69842C14.3466 2.87033 14.25 3.10348 14.25 3.3466V4.26326H8.75001V3.3466C8.75001 3.10348 8.65343 2.87033 8.48152 2.69842C8.30962 2.52651 8.07646 2.42993 7.83334 2.42993C7.59023 2.42993 7.35707 2.52651 7.18516 2.69842C7.01325 2.87033 6.91668 3.10348 6.91668 3.3466V4.26326H5.08334C4.354 4.26326 3.65452 4.553 3.1388 5.06872C2.62307 5.58445 2.33334 6.28392 2.33334 7.01326V18.0133C2.33334 18.7426 2.62307 19.4421 3.1388 19.9578C3.65452 20.4735 4.354 20.7633 5.08334 20.7633H17.9167C18.646 20.7633 19.3455 20.4735 19.8612 19.9578C20.3769 19.4421 20.6667 18.7426 20.6667 18.0133V7.01326C20.6667 6.28392 20.3769 5.58445 19.8612 5.06872C19.3455 4.553 18.646 4.26326 17.9167 4.26326V4.26326ZM18.8333 18.0133C18.8333 18.2564 18.7368 18.4895 18.5649 18.6614C18.3929 18.8334 18.1598 18.9299 17.9167 18.9299H5.08334C4.84023 18.9299 4.60707 18.8334 4.43516 18.6614C4.26325 18.4895 4.16668 18.2564 4.16668 18.0133V11.5966H18.8333V18.0133ZM18.8333 9.76326H4.16668V7.01326C4.16668 6.77015 4.26325 6.53699 4.43516 6.36508C4.60707 6.19318 4.84023 6.0966 5.08334 6.0966H6.91668V7.01326C6.91668 7.25638 7.01325 7.48954 7.18516 7.66145C7.35707 7.83335 7.59023 7.92993 7.83334 7.92993C8.07646 7.92993 8.30962 7.83335 8.48152 7.66145C8.65343 7.48954 8.75001 7.25638 8.75001 7.01326V6.0966H14.25V7.01326C14.25 7.25638 14.3466 7.48954 14.5185 7.66145C14.6904 7.83335 14.9236 7.92993 15.1667 7.92993C15.4098 7.92993 15.6429 7.83335 15.8149 7.66145C15.9868 7.48954 16.0833 7.25638 16.0833 7.01326V6.0966H17.9167C18.1598 6.0966 18.3929 6.19318 18.5649 6.36508C18.7368 6.53699 18.8333 6.77015 18.8333 7.01326V9.76326Z" fill="black"/>
</svg>
