<svg width="21" height="20" viewBox="0 0 21 20" fill="none" xmlns="http://www.w3.org/2000/svg">
<path d="M2.14673 15.7669C2.14673 17.1272 3.23006 18.1673 4.64673 18.1673H16.3134C17.7301 18.1673 18.8134 17.1272 18.8134 15.7669V9.36596H2.14673V15.7669ZM16.3134 3.7651H14.6467V2.96498C14.6467 2.48491 14.3134 2.16486 13.8134 2.16486C13.3134 2.16486 12.9801 2.48491 12.9801 2.96498V3.7651H7.98006V2.96498C7.98006 2.48491 7.64673 2.16486 7.14673 2.16486C6.64673 2.16486 6.3134 2.48491 6.3134 2.96498V3.7651H4.64673C3.23006 3.7651 2.14673 4.80526 2.14673 6.16547V7.76572H18.8134V6.16547C18.8134 4.80526 17.7301 3.7651 16.3134 3.7651Z" fill="#9F9F9F"/>
</svg>
