<svg width="14" height="14" viewBox="0 0 14 14" fill="none" xmlns="http://www.w3.org/2000/svg">
<path d="M1.58325 10.6712C1.58325 11.5921 2.28742 12.2962 3.20825 12.2962H10.7916C11.7124 12.2962 12.4166 11.5921 12.4166 10.6712V6.33789H1.58325V10.6712ZM10.7916 2.54622H9.70825V2.00456C9.70825 1.67956 9.49159 1.46289 9.16659 1.46289C8.84159 1.46289 8.62492 1.67956 8.62492 2.00456V2.54622H5.37492V2.00456C5.37492 1.67956 5.15825 1.46289 4.83325 1.46289C4.50825 1.46289 4.29159 1.67956 4.29159 2.00456V2.54622H3.20825C2.28742 2.54622 1.58325 3.25039 1.58325 4.17122V5.25456H12.4166V4.17122C12.4166 3.25039 11.7124 2.54622 10.7916 2.54622Z" fill="#9F9F9F"/>
</svg>
