<svg width="21" height="21" viewBox="0 0 21 21" fill="none" xmlns="http://www.w3.org/2000/svg">
<path d="M2.16675 15.9297C2.16675 17.3464 3.25008 18.4297 4.66675 18.4297H16.3334C17.7501 18.4297 18.8334 17.3464 18.8334 15.9297V9.26306H2.16675V15.9297ZM16.3334 3.42973H14.6667V2.59639C14.6667 2.09639 14.3334 1.76306 13.8334 1.76306C13.3334 1.76306 13.0001 2.09639 13.0001 2.59639V3.42973H8.00008V2.59639C8.00008 2.09639 7.66675 1.76306 7.16675 1.76306C6.66675 1.76306 6.33341 2.09639 6.33341 2.59639V3.42973H4.66675C3.25008 3.42973 2.16675 4.51306 2.16675 5.92973V7.5964H18.8334V5.92973C18.8334 4.51306 17.7501 3.42973 16.3334 3.42973Z" fill="#9F9F9F"/>
</svg>
