<svg width="24" height="23" viewBox="0 0 24 23" fill="none" xmlns="http://www.w3.org/2000/svg">
<path d="M22.7248 17.936L17.6436 13.316C17.4034 13.0977 17.0878 12.9813 16.7633 12.9913C16.4389 13.0014 16.1311 13.1371 15.9048 13.3698L12.9136 16.446C12.1936 16.3085 10.7461 15.8573 9.25608 14.371C7.76608 12.8798 7.31483 11.4285 7.18108 10.7135L10.2548 7.72104C10.4878 7.49495 10.6237 7.18707 10.6338 6.86255C10.6438 6.53803 10.5272 6.22234 10.3086 5.98229L5.68983 0.902291C5.47113 0.661487 5.16717 0.515421 4.84252 0.495116C4.51786 0.47481 4.19807 0.581864 3.95108 0.793541L1.23858 3.11979C1.02246 3.33669 0.893475 3.62535 0.876075 3.93104C0.857325 4.24354 0.499825 11.646 6.23983 17.3885C11.2473 22.3948 17.5198 22.761 19.2473 22.761C19.4998 22.761 19.6548 22.7535 19.6961 22.751C20.0017 22.7339 20.2902 22.6044 20.5061 22.3873L22.8311 19.6735C23.0436 19.4273 23.1514 19.1078 23.1316 18.7832C23.1117 18.4585 22.9658 18.1545 22.7248 17.936V17.936Z" fill="black"/>
</svg>
