<svg width="26" height="23" viewBox="0 0 26 23" fill="none" xmlns="http://www.w3.org/2000/svg">
<path d="M24.2354 15.6926H7.95225L8.76982 14.0273L22.3542 14.0027C22.8136 14.0027 23.2073 13.6746 23.2894 13.2207L25.1706 2.69063C25.2198 2.41445 25.146 2.13008 24.9655 1.91406C24.8763 1.80775 24.7651 1.72211 24.6395 1.66309C24.5139 1.60407 24.377 1.57308 24.2382 1.57227L6.95693 1.51484L6.80928 0.820313C6.71631 0.377344 6.31709 0.0546875 5.86318 0.0546875H1.63857C1.38258 0.0546875 1.13707 0.156381 0.95605 0.337398C0.775034 0.518415 0.67334 0.763926 0.67334 1.01992C0.67334 1.27592 0.775034 1.52143 0.95605 1.70245C1.13707 1.88346 1.38258 1.98516 1.63857 1.98516H5.08115L5.72646 5.05313L7.31514 12.7449L5.26982 16.0836C5.16361 16.227 5.09963 16.3972 5.08514 16.575C5.07064 16.7528 5.1062 16.9312 5.18779 17.0898C5.35186 17.4152 5.68271 17.6203 6.04912 17.6203H7.76631C7.40023 18.1065 7.20249 18.6988 7.20303 19.3074C7.20303 20.8551 8.46084 22.1129 10.0085 22.1129C11.5562 22.1129 12.814 20.8551 12.814 19.3074C12.814 18.6977 12.6116 18.1043 12.2507 17.6203H16.6558C16.2897 18.1065 16.0919 18.6988 16.0925 19.3074C16.0925 20.8551 17.3503 22.1129 18.8979 22.1129C20.4456 22.1129 21.7034 20.8551 21.7034 19.3074C21.7034 18.6977 21.5011 18.1043 21.1401 17.6203H24.2382C24.7687 17.6203 25.2034 17.1883 25.2034 16.6551C25.2018 16.3994 25.0992 16.1546 24.9178 15.9743C24.7365 15.794 24.4912 15.6927 24.2354 15.6926V15.6926ZM7.35889 3.41797L23.1034 3.46992L21.5612 12.1051L9.19365 12.127L7.35889 3.41797ZM10.0085 20.1715C9.53271 20.1715 9.14443 19.7832 9.14443 19.3074C9.14443 18.8316 9.53271 18.4434 10.0085 18.4434C10.4843 18.4434 10.8726 18.8316 10.8726 19.3074C10.8726 19.5366 10.7815 19.7564 10.6195 19.9184C10.4574 20.0805 10.2377 20.1715 10.0085 20.1715V20.1715ZM18.8979 20.1715C18.4222 20.1715 18.0339 19.7832 18.0339 19.3074C18.0339 18.8316 18.4222 18.4434 18.8979 18.4434C19.3737 18.4434 19.762 18.8316 19.762 19.3074C19.762 19.5366 19.671 19.7564 19.5089 19.9184C19.3469 20.0805 19.1271 20.1715 18.8979 20.1715V20.1715Z" fill="white"/>
</svg>
