<svg width="24" height="21" viewBox="0 0 24 21" fill="none" xmlns="http://www.w3.org/2000/svg">
<path d="M22.7248 16.284L17.6436 12.0921C17.4034 11.894 17.0878 11.7884 16.7633 11.7975C16.4389 11.8066 16.1311 11.9297 15.9048 12.1409L12.9136 14.9321C12.1936 14.8073 10.7461 14.3979 9.25608 13.0493C7.76608 11.6963 7.31483 10.3795 7.18108 9.73074L10.2548 7.01551C10.4878 6.81037 10.6237 6.53102 10.6338 6.23657C10.6438 5.94212 10.5272 5.65568 10.3086 5.43787L5.68983 0.82857C5.47113 0.610079 5.16717 0.477547 4.84252 0.459123C4.51786 0.440699 4.19807 0.537833 3.95108 0.729897L1.23858 2.8406C1.02246 3.0374 0.893475 3.29932 0.876075 3.57668C0.857325 3.86023 0.499825 10.5768 6.23983 15.7872C11.2473 20.3296 17.5198 20.6619 19.2473 20.6619C19.4998 20.6619 19.6548 20.6551 19.6961 20.6529C20.0017 20.6373 20.2902 20.5198 20.5061 20.3228L22.8311 17.8605C23.0436 17.6371 23.1514 17.3472 23.1316 17.0527C23.1117 16.7581 22.9658 16.4823 22.7248 16.284V16.284Z" fill="black"/>
</svg>
