<svg width="24" height="19" viewBox="0 0 24 19" fill="none" xmlns="http://www.w3.org/2000/svg">
<path d="M21.3333 9.49999V3.66666H23.6666V10.6667H21.3333M21.3333 15.3333H23.6666V13H21.3333M9.66659 10.6667C12.7816 10.6667 18.9999 12.23 18.9999 15.3333V18.8333H0.333252V15.3333C0.333252 12.23 6.55159 10.6667 9.66659 10.6667ZM9.66659 0.166656C10.9043 0.166656 12.0912 0.658322 12.9664 1.53349C13.8416 2.40866 14.3333 3.59565 14.3333 4.83332C14.3333 6.071 13.8416 7.25799 12.9664 8.13315C12.0912 9.00832 10.9043 9.49999 9.66659 9.49999C8.42891 9.49999 7.24192 9.00832 6.36675 8.13315C5.49158 7.25799 4.99992 6.071 4.99992 4.83332C4.99992 3.59565 5.49158 2.40866 6.36675 1.53349C7.24192 0.658322 8.42891 0.166656 9.66659 0.166656M9.66659 12.8833C6.20159 12.8833 2.54992 14.5867 2.54992 15.3333V16.6167H16.7833V15.3333C16.7833 14.5867 13.1316 12.8833 9.66659 12.8833M9.66659 2.38332C9.01681 2.38332 8.39364 2.64145 7.93417 3.10091C7.47471 3.56038 7.21659 4.18354 7.21659 4.83332C7.21659 5.4831 7.47471 6.10627 7.93417 6.56573C8.39364 7.0252 9.01681 7.28332 9.66659 7.28332C10.3164 7.28332 10.9395 7.0252 11.399 6.56573C11.8585 6.10627 12.1166 5.4831 12.1166 4.83332C12.1166 4.18354 11.8585 3.56038 11.399 3.10091C10.9395 2.64145 10.3164 2.38332 9.66659 2.38332V2.38332Z" fill="white"/>
</svg>
