<svg width="24" height="24" viewBox="0 0 24 24" fill="none" xmlns="http://www.w3.org/2000/svg">
<path d="M23.5 11.9927C23.5 15.0427 22.2884 17.9677 20.1317 20.1244C17.9751 22.2811 15.05 23.4927 12 23.4927C8.95001 23.4927 6.02494 22.2811 3.86827 20.1244C1.7116 17.9677 0.5 15.0427 0.5 11.9927C0.5 8.94269 1.7116 6.01762 3.86827 3.86095C6.02494 1.70428 8.95001 0.492676 12 0.492676C15.05 0.492676 17.9751 1.70428 20.1317 3.86095C22.2884 6.01762 23.5 8.94269 23.5 11.9927V11.9927ZM12 5.52393C12 5.3333 11.9243 5.15048 11.7895 5.01569C11.6547 4.8809 11.4719 4.80518 11.2812 4.80518C11.0906 4.80518 10.9078 4.8809 10.773 5.01569C10.6382 5.15048 10.5625 5.3333 10.5625 5.52393V13.4302C10.5625 13.5569 10.5961 13.6813 10.6597 13.7909C10.7233 13.9004 10.8147 13.9912 10.9247 14.0541L15.956 16.9291C16.1211 17.0183 16.3146 17.0394 16.495 16.9879C16.6755 16.9364 16.8287 16.8163 16.9218 16.6533C17.0149 16.4904 17.0406 16.2975 16.9933 16.1158C16.9461 15.9342 16.8297 15.7782 16.669 15.6813L12 13.0133V5.52393Z" fill="black"/>
</svg>
