<svg width="22" height="29" viewBox="0 0 22 29" fill="none" xmlns="http://www.w3.org/2000/svg">
<path d="M11 0.492676C8.08369 0.496138 5.28779 1.66342 3.22564 3.73846C1.16348 5.8135 0.00345217 8.62687 1.17029e-05 11.5614C-0.00348119 13.9595 0.774992 16.2926 2.21601 18.2027C2.21601 18.2027 2.51601 18.6001 2.56501 18.6575L11 28.6677L19.439 18.6525C19.483 18.5991 19.784 18.2027 19.784 18.2027L19.785 18.1997C21.2253 16.2904 22.0034 13.9584 22 11.5614C21.9966 8.62687 20.8365 5.8135 18.7744 3.73846C16.7122 1.66342 13.9163 0.496138 11 0.492676ZM11 15.5864C10.2089 15.5864 9.43553 15.3504 8.77773 14.9081C8.11993 14.4658 7.60724 13.8372 7.30449 13.1017C7.00174 12.3663 6.92253 11.557 7.07687 10.7762C7.23121 9.99541 7.61217 9.27823 8.17158 8.71532C8.73099 8.15241 9.44373 7.76907 10.2197 7.61376C10.9956 7.45846 11.7998 7.53817 12.5307 7.84281C13.2616 8.14745 13.8864 8.66335 14.3259 9.32526C14.7654 9.98716 15 10.7654 15 11.5614C14.9987 12.6285 14.5768 13.6515 13.827 14.4061C13.0771 15.1606 12.0605 15.5851 11 15.5864Z" fill="black"/>
</svg>
