<svg width="24" height="21" viewBox="0 0 24 21" fill="none" xmlns="http://www.w3.org/2000/svg">
<path d="M23.5 10.5463C23.5 13.3137 22.2884 15.9677 20.1317 17.9246C17.9751 19.8814 15.05 20.9808 12 20.9808C8.95001 20.9808 6.02494 19.8814 3.86827 17.9246C1.7116 15.9677 0.5 13.3137 0.5 10.5463C0.5 7.77893 1.7116 5.12489 3.86827 3.16805C6.02494 1.21122 8.95001 0.111877 12 0.111877C15.05 0.111877 17.9751 1.21122 20.1317 3.16805C22.2884 5.12489 23.5 7.77893 23.5 10.5463V10.5463ZM12 4.67695C12 4.50398 11.9243 4.33811 11.7895 4.2158C11.6547 4.0935 11.4719 4.02479 11.2812 4.02479C11.0906 4.02479 10.9078 4.0935 10.773 4.2158C10.6382 4.33811 10.5625 4.50398 10.5625 4.67695V11.8506C10.5625 11.9656 10.5961 12.0785 10.6597 12.1779C10.7233 12.2773 10.8147 12.3597 10.9247 12.4167L15.956 15.0253C16.1211 15.1063 16.3146 15.1254 16.495 15.0787C16.6755 15.0319 16.8287 14.923 16.9218 14.7751C17.0149 14.6273 17.0406 14.4522 16.9933 14.2874C16.9461 14.1226 16.8297 13.9811 16.669 13.8932L12 11.4724V4.67695Z" fill="black"/>
</svg>
