<svg width="23" height="26" viewBox="0 0 23 26" fill="none" xmlns="http://www.w3.org/2000/svg">
<path d="M11.5 0.133911C8.58369 0.137052 5.78779 1.19618 3.72564 3.07895C1.66348 4.96173 0.503452 7.51442 0.500012 10.1771C0.496519 12.353 1.27499 14.4699 2.71601 16.203C2.71601 16.203 3.01601 16.5636 3.06501 16.6156L11.5 25.6983L19.939 16.6111C19.983 16.5627 20.284 16.203 20.284 16.203L20.285 16.2002C21.7253 14.4679 22.5034 12.352 22.5 10.1771C22.4966 7.51442 21.3365 4.96173 19.2744 3.07895C17.2122 1.19618 14.4163 0.137052 11.5 0.133911ZM11.5 13.8291C10.7089 13.8291 9.93553 13.6149 9.27773 13.2136C8.61993 12.8123 8.10724 12.242 7.80449 11.5746C7.50174 10.9073 7.42253 10.173 7.57687 9.46458C7.73121 8.75615 8.11217 8.10542 8.67158 7.59467C9.23099 7.08392 9.94373 6.73609 10.7197 6.59518C11.4956 6.45426 12.2998 6.52659 13.0307 6.803C13.7616 7.07942 14.3864 7.54751 14.8259 8.14809C15.2654 8.74867 15.5 9.45475 15.5 10.1771C15.4987 11.1453 15.0768 12.0735 14.327 12.7581C13.5771 13.4427 12.5605 13.8279 11.5 13.8291Z" fill="black"/>
</svg>
