<svg width="24" height="19" viewBox="0 0 24 19" fill="none" xmlns="http://www.w3.org/2000/svg">
<path d="M21.3333 9.49999V3.66666H23.6667V10.6667H21.3333M21.3333 15.3333H23.6667V13H21.3333M9.66667 10.6667C12.7817 10.6667 19 12.23 19 15.3333V18.8333H0.333332V15.3333C0.333332 12.23 6.55167 10.6667 9.66667 10.6667ZM9.66667 0.166656C10.9043 0.166656 12.0913 0.658322 12.9665 1.53349C13.8417 2.40866 14.3333 3.59565 14.3333 4.83332C14.3333 6.071 13.8417 7.25799 12.9665 8.13315C12.0913 9.00832 10.9043 9.49999 9.66667 9.49999C8.42899 9.49999 7.242 9.00832 6.36683 8.13315C5.49166 7.25799 5 6.071 5 4.83332C5 3.59565 5.49166 2.40866 6.36683 1.53349C7.242 0.658322 8.42899 0.166656 9.66667 0.166656M9.66667 12.8833C6.20167 12.8833 2.55 14.5867 2.55 15.3333V16.6167H16.7833V15.3333C16.7833 14.5867 13.1317 12.8833 9.66667 12.8833M9.66667 2.38332C9.01689 2.38332 8.39372 2.64145 7.93425 3.10091C7.47479 3.56038 7.21667 4.18354 7.21667 4.83332C7.21667 5.4831 7.47479 6.10627 7.93425 6.56573C8.39372 7.0252 9.01689 7.28332 9.66667 7.28332C10.3164 7.28332 10.9396 7.0252 11.3991 6.56573C11.8585 6.10627 12.1167 5.4831 12.1167 4.83332C12.1167 4.18354 11.8585 3.56038 11.3991 3.10091C10.9396 2.64145 10.3164 2.38332 9.66667 2.38332V2.38332Z" fill="white"/>
</svg>
