<svg width="15" height="16" viewBox="0 0 15 16" fill="none" xmlns="http://www.w3.org/2000/svg">
<path d="M7.24 7.37397C4.97 7.37397 4.51 4.07106 4.51 4.07106C4.24 2.3524 5.06 0.412903 7.21 0.412903C9.37 0.412903 10.19 2.3524 9.92 4.07106C9.92 4.07106 9.51 7.37397 7.24 7.37397ZM7.24 9.84155L9.96 8.09408C12.35 8.09408 14.48 10.3312 14.48 12.4436V14.8343C14.48 14.8343 10.83 15.9193 7.24 15.9193C3.59 15.9193 0 14.8343 0 14.8343V12.4436C0 10.2832 1.94 8.14209 4.47 8.14209L7.24 9.84155Z" fill="#9F9F9F"/>
</svg>
