<svg width="24" height="19" viewBox="0 0 24 19" fill="none" xmlns="http://www.w3.org/2000/svg">
<path d="M21.3335 9.49999V3.66666H23.6668V10.6667H21.3335M21.3335 15.3333H23.6668V13H21.3335M9.66683 10.6667C12.7818 10.6667 19.0002 12.23 19.0002 15.3333V18.8333H0.333496V15.3333C0.333496 12.23 6.55183 10.6667 9.66683 10.6667ZM9.66683 0.166656C10.9045 0.166656 12.0915 0.658322 12.9667 1.53349C13.8418 2.40866 14.3335 3.59565 14.3335 4.83332C14.3335 6.071 13.8418 7.25799 12.9667 8.13315C12.0915 9.00832 10.9045 9.49999 9.66683 9.49999C8.42915 9.49999 7.24217 9.00832 6.367 8.13315C5.49183 7.25799 5.00016 6.071 5.00016 4.83332C5.00016 3.59565 5.49183 2.40866 6.367 1.53349C7.24217 0.658322 8.42915 0.166656 9.66683 0.166656M9.66683 12.8833C6.20183 12.8833 2.55016 14.5867 2.55016 15.3333V16.6167H16.7835V15.3333C16.7835 14.5867 13.1318 12.8833 9.66683 12.8833M9.66683 2.38332C9.01705 2.38332 8.39388 2.64145 7.93442 3.10091C7.47495 3.56038 7.21683 4.18354 7.21683 4.83332C7.21683 5.4831 7.47495 6.10627 7.93442 6.56573C8.39388 7.0252 9.01705 7.28332 9.66683 7.28332C10.3166 7.28332 10.9398 7.0252 11.3992 6.56573C11.8587 6.10627 12.1168 5.4831 12.1168 4.83332C12.1168 4.18354 11.8587 3.56038 11.3992 3.10091C10.9398 2.64145 10.3166 2.38332 9.66683 2.38332V2.38332Z" fill="white"/>
</svg>
