<svg width="24" height="19" viewBox="0 0 24 19" fill="none" xmlns="http://www.w3.org/2000/svg">
<path d="M21.3334 9.49999V3.66666H23.6667V10.6667H21.3334M21.3334 15.3333H23.6667V13H21.3334M9.66671 10.6667C12.7817 10.6667 19 12.23 19 15.3333V18.8333H0.333374V15.3333C0.333374 12.23 6.55171 10.6667 9.66671 10.6667ZM9.66671 0.166656C10.9044 0.166656 12.0914 0.658322 12.9665 1.53349C13.8417 2.40866 14.3334 3.59565 14.3334 4.83332C14.3334 6.071 13.8417 7.25799 12.9665 8.13315C12.0914 9.00832 10.9044 9.49999 9.66671 9.49999C8.42903 9.49999 7.24205 9.00832 6.36688 8.13315C5.49171 7.25799 5.00004 6.071 5.00004 4.83332C5.00004 3.59565 5.49171 2.40866 6.36688 1.53349C7.24205 0.658322 8.42903 0.166656 9.66671 0.166656M9.66671 12.8833C6.20171 12.8833 2.55004 14.5867 2.55004 15.3333V16.6167H16.7834V15.3333C16.7834 14.5867 13.1317 12.8833 9.66671 12.8833M9.66671 2.38332C9.01693 2.38332 8.39376 2.64145 7.9343 3.10091C7.47483 3.56038 7.21671 4.18354 7.21671 4.83332C7.21671 5.4831 7.47483 6.10627 7.9343 6.56573C8.39376 7.0252 9.01693 7.28332 9.66671 7.28332C10.3165 7.28332 10.9397 7.0252 11.3991 6.56573C11.8586 6.10627 12.1167 5.4831 12.1167 4.83332C12.1167 4.18354 11.8586 3.56038 11.3991 3.10091C10.9397 2.64145 10.3165 2.38332 9.66671 2.38332V2.38332Z" fill="white"/>
</svg>
